<mxfile host="app.diagrams.net" modified="2020-04-15T02:36:56.434Z" agent="5.0 (X11; Linux x86_64) AppleWebKit/537.36 (KHTML, like Gecko) Chrome/80.0.3987.163 Safari/537.36" etag="vCR2D2bvHpRRdEd9HJBb" version="12.9.12" type="github">
  <diagram id="crrlfwqsGMAvzB64O_d-" name="Page-1">
    <mxGraphModel dx="774" dy="1125" grid="1" gridSize="10" guides="1" tooltips="1" connect="1" arrows="1" fold="1" page="1" pageScale="1" pageWidth="850" pageHeight="1100" math="0" shadow="0">
      <root>
        <mxCell id="0" />
        <mxCell id="1" parent="0" />
        <mxCell id="yaFvhEICd4bSxS1KPpvw-23" value="" style="edgeStyle=orthogonalEdgeStyle;rounded=0;orthogonalLoop=1;jettySize=auto;html=1;" edge="1" parent="1" source="yaFvhEICd4bSxS1KPpvw-1" target="yaFvhEICd4bSxS1KPpvw-2">
          <mxGeometry relative="1" as="geometry" />
        </mxCell>
        <mxCell id="yaFvhEICd4bSxS1KPpvw-27" style="edgeStyle=orthogonalEdgeStyle;rounded=0;orthogonalLoop=1;jettySize=auto;html=1;exitX=1;exitY=0.5;exitDx=0;exitDy=0;" edge="1" parent="1" source="yaFvhEICd4bSxS1KPpvw-1">
          <mxGeometry relative="1" as="geometry">
            <mxPoint x="390" y="110" as="targetPoint" />
          </mxGeometry>
        </mxCell>
        <mxCell id="yaFvhEICd4bSxS1KPpvw-1" value="DuckDuckGo" style="rounded=0;whiteSpace=wrap;html=1;" vertex="1" parent="1">
          <mxGeometry x="240" y="120" width="200" height="80" as="geometry" />
        </mxCell>
        <mxCell id="yaFvhEICd4bSxS1KPpvw-24" value="" style="edgeStyle=orthogonalEdgeStyle;rounded=0;orthogonalLoop=1;jettySize=auto;html=1;" edge="1" parent="1" source="yaFvhEICd4bSxS1KPpvw-2" target="yaFvhEICd4bSxS1KPpvw-5">
          <mxGeometry relative="1" as="geometry" />
        </mxCell>
        <mxCell id="yaFvhEICd4bSxS1KPpvw-29" style="edgeStyle=orthogonalEdgeStyle;rounded=0;orthogonalLoop=1;jettySize=auto;html=1;exitX=1;exitY=0.5;exitDx=0;exitDy=0;" edge="1" parent="1" source="yaFvhEICd4bSxS1KPpvw-2">
          <mxGeometry relative="1" as="geometry">
            <mxPoint x="390" y="270" as="targetPoint" />
          </mxGeometry>
        </mxCell>
        <mxCell id="yaFvhEICd4bSxS1KPpvw-2" value="Bing" style="rounded=0;whiteSpace=wrap;html=1;" vertex="1" parent="1">
          <mxGeometry x="240" y="280" width="200" height="80" as="geometry" />
        </mxCell>
        <mxCell id="yaFvhEICd4bSxS1KPpvw-3" value="Document" style="ellipse;whiteSpace=wrap;html=1;aspect=fixed;" vertex="1" parent="1">
          <mxGeometry x="140" y="440" width="80" height="80" as="geometry" />
        </mxCell>
        <mxCell id="yaFvhEICd4bSxS1KPpvw-4" value="Document" style="ellipse;whiteSpace=wrap;html=1;aspect=fixed;" vertex="1" parent="1">
          <mxGeometry x="220" y="440" width="80" height="80" as="geometry" />
        </mxCell>
        <mxCell id="yaFvhEICd4bSxS1KPpvw-5" value="Document" style="ellipse;whiteSpace=wrap;html=1;aspect=fixed;" vertex="1" parent="1">
          <mxGeometry x="300" y="440" width="80" height="80" as="geometry" />
        </mxCell>
        <mxCell id="yaFvhEICd4bSxS1KPpvw-6" value="Document" style="ellipse;whiteSpace=wrap;html=1;aspect=fixed;" vertex="1" parent="1">
          <mxGeometry x="380" y="440" width="80" height="80" as="geometry" />
        </mxCell>
        <mxCell id="yaFvhEICd4bSxS1KPpvw-7" value="Document" style="ellipse;whiteSpace=wrap;html=1;aspect=fixed;" vertex="1" parent="1">
          <mxGeometry x="460" y="440" width="80" height="80" as="geometry" />
        </mxCell>
        <mxCell id="yaFvhEICd4bSxS1KPpvw-8" value="Document" style="ellipse;whiteSpace=wrap;html=1;aspect=fixed;" vertex="1" parent="1">
          <mxGeometry x="140" y="520" width="80" height="80" as="geometry" />
        </mxCell>
        <mxCell id="yaFvhEICd4bSxS1KPpvw-9" value="Document" style="ellipse;whiteSpace=wrap;html=1;aspect=fixed;" vertex="1" parent="1">
          <mxGeometry x="220" y="520" width="80" height="80" as="geometry" />
        </mxCell>
        <mxCell id="yaFvhEICd4bSxS1KPpvw-10" value="Document" style="ellipse;whiteSpace=wrap;html=1;aspect=fixed;" vertex="1" parent="1">
          <mxGeometry x="300" y="520" width="80" height="80" as="geometry" />
        </mxCell>
        <mxCell id="yaFvhEICd4bSxS1KPpvw-11" value="Document" style="ellipse;whiteSpace=wrap;html=1;aspect=fixed;" vertex="1" parent="1">
          <mxGeometry x="380" y="520" width="80" height="80" as="geometry" />
        </mxCell>
        <mxCell id="yaFvhEICd4bSxS1KPpvw-12" value="Document" style="ellipse;whiteSpace=wrap;html=1;aspect=fixed;" vertex="1" parent="1">
          <mxGeometry x="460" y="520" width="80" height="80" as="geometry" />
        </mxCell>
        <mxCell id="yaFvhEICd4bSxS1KPpvw-13" value="Document" style="ellipse;whiteSpace=wrap;html=1;aspect=fixed;" vertex="1" parent="1">
          <mxGeometry x="140" y="600" width="80" height="80" as="geometry" />
        </mxCell>
        <mxCell id="yaFvhEICd4bSxS1KPpvw-14" value="Document" style="ellipse;whiteSpace=wrap;html=1;aspect=fixed;" vertex="1" parent="1">
          <mxGeometry x="220" y="600" width="80" height="80" as="geometry" />
        </mxCell>
        <mxCell id="yaFvhEICd4bSxS1KPpvw-15" value="Document" style="ellipse;whiteSpace=wrap;html=1;aspect=fixed;" vertex="1" parent="1">
          <mxGeometry x="300" y="600" width="80" height="80" as="geometry" />
        </mxCell>
        <mxCell id="yaFvhEICd4bSxS1KPpvw-16" value="Document" style="ellipse;whiteSpace=wrap;html=1;aspect=fixed;" vertex="1" parent="1">
          <mxGeometry x="380" y="600" width="80" height="80" as="geometry" />
        </mxCell>
        <mxCell id="yaFvhEICd4bSxS1KPpvw-17" value="Document" style="ellipse;whiteSpace=wrap;html=1;aspect=fixed;" vertex="1" parent="1">
          <mxGeometry x="460" y="600" width="80" height="80" as="geometry" />
        </mxCell>
        <mxCell id="yaFvhEICd4bSxS1KPpvw-18" value="Document" style="ellipse;whiteSpace=wrap;html=1;aspect=fixed;" vertex="1" parent="1">
          <mxGeometry x="140" y="680" width="80" height="80" as="geometry" />
        </mxCell>
        <mxCell id="yaFvhEICd4bSxS1KPpvw-19" value="Document" style="ellipse;whiteSpace=wrap;html=1;aspect=fixed;" vertex="1" parent="1">
          <mxGeometry x="220" y="680" width="80" height="80" as="geometry" />
        </mxCell>
        <mxCell id="yaFvhEICd4bSxS1KPpvw-20" value="Document" style="ellipse;whiteSpace=wrap;html=1;aspect=fixed;" vertex="1" parent="1">
          <mxGeometry x="300" y="680" width="80" height="80" as="geometry" />
        </mxCell>
        <mxCell id="yaFvhEICd4bSxS1KPpvw-21" value="Document" style="ellipse;whiteSpace=wrap;html=1;aspect=fixed;" vertex="1" parent="1">
          <mxGeometry x="380" y="680" width="80" height="80" as="geometry" />
        </mxCell>
        <mxCell id="yaFvhEICd4bSxS1KPpvw-22" value="Document" style="ellipse;whiteSpace=wrap;html=1;aspect=fixed;" vertex="1" parent="1">
          <mxGeometry x="460" y="680" width="80" height="80" as="geometry" />
        </mxCell>
        <mxCell id="yaFvhEICd4bSxS1KPpvw-30" value="Topic" style="text;html=1;strokeColor=none;fillColor=none;align=center;verticalAlign=middle;whiteSpace=wrap;rounded=0;" vertex="1" parent="1">
          <mxGeometry x="470" y="120" width="40" height="20" as="geometry" />
        </mxCell>
        <mxCell id="yaFvhEICd4bSxS1KPpvw-31" value="Topic" style="text;html=1;strokeColor=none;fillColor=none;align=center;verticalAlign=middle;whiteSpace=wrap;rounded=0;" vertex="1" parent="1">
          <mxGeometry x="470" y="280" width="40" height="20" as="geometry" />
        </mxCell>
        <mxCell id="yaFvhEICd4bSxS1KPpvw-32" value="Topic" style="text;html=1;strokeColor=none;fillColor=none;align=center;verticalAlign=middle;whiteSpace=wrap;rounded=0;" vertex="1" parent="1">
          <mxGeometry x="280" y="220" width="40" height="20" as="geometry" />
        </mxCell>
        <mxCell id="yaFvhEICd4bSxS1KPpvw-35" value="Search Results" style="text;html=1;strokeColor=none;fillColor=none;align=center;verticalAlign=middle;whiteSpace=wrap;rounded=0;" vertex="1" parent="1">
          <mxGeometry x="280" y="380" width="40" height="20" as="geometry" />
        </mxCell>
        <mxCell id="yaFvhEICd4bSxS1KPpvw-36" value="" style="rounded=1;whiteSpace=wrap;html=1;fillColor=none;" vertex="1" parent="1">
          <mxGeometry x="140" y="440" width="80" height="320" as="geometry" />
        </mxCell>
        <mxCell id="yaFvhEICd4bSxS1KPpvw-37" value="" style="rounded=1;whiteSpace=wrap;html=1;fillColor=none;" vertex="1" parent="1">
          <mxGeometry x="220" y="440" width="80" height="320" as="geometry" />
        </mxCell>
        <mxCell id="yaFvhEICd4bSxS1KPpvw-38" value="" style="rounded=1;whiteSpace=wrap;html=1;fillColor=none;" vertex="1" parent="1">
          <mxGeometry x="300" y="440" width="80" height="320" as="geometry" />
        </mxCell>
        <mxCell id="yaFvhEICd4bSxS1KPpvw-39" value="" style="rounded=1;whiteSpace=wrap;html=1;fillColor=none;" vertex="1" parent="1">
          <mxGeometry x="380" y="440" width="80" height="320" as="geometry" />
        </mxCell>
        <mxCell id="yaFvhEICd4bSxS1KPpvw-40" value="" style="rounded=1;whiteSpace=wrap;html=1;fillColor=none;" vertex="1" parent="1">
          <mxGeometry x="460" y="440" width="80" height="320" as="geometry" />
        </mxCell>
        <mxCell id="yaFvhEICd4bSxS1KPpvw-41" value="Topic Corpus" style="text;html=1;strokeColor=none;fillColor=none;align=center;verticalAlign=middle;whiteSpace=wrap;rounded=0;" vertex="1" parent="1">
          <mxGeometry x="160" y="770" width="40" height="20" as="geometry" />
        </mxCell>
        <mxCell id="yaFvhEICd4bSxS1KPpvw-42" value="Topic Corpus" style="text;html=1;strokeColor=none;fillColor=none;align=center;verticalAlign=middle;whiteSpace=wrap;rounded=0;" vertex="1" parent="1">
          <mxGeometry x="240" y="770" width="40" height="20" as="geometry" />
        </mxCell>
        <mxCell id="yaFvhEICd4bSxS1KPpvw-43" value="Topic Corpus" style="text;html=1;strokeColor=none;fillColor=none;align=center;verticalAlign=middle;whiteSpace=wrap;rounded=0;" vertex="1" parent="1">
          <mxGeometry x="320" y="770" width="40" height="20" as="geometry" />
        </mxCell>
        <mxCell id="yaFvhEICd4bSxS1KPpvw-44" value="Topic Corpus" style="text;html=1;strokeColor=none;fillColor=none;align=center;verticalAlign=middle;whiteSpace=wrap;rounded=0;" vertex="1" parent="1">
          <mxGeometry x="405" y="770" width="40" height="20" as="geometry" />
        </mxCell>
        <mxCell id="yaFvhEICd4bSxS1KPpvw-45" value="Topic Corpus" style="text;html=1;strokeColor=none;fillColor=none;align=center;verticalAlign=middle;whiteSpace=wrap;rounded=0;" vertex="1" parent="1">
          <mxGeometry x="480" y="770" width="40" height="20" as="geometry" />
        </mxCell>
      </root>
    </mxGraphModel>
  </diagram>
</mxfile>
